<?xml version="1.0" encoding="utf-8"?>
<!-- Generator: Adobe Illustrator 14.0.0, SVG Export Plug-In  -->
<!DOCTYPE svg PUBLIC "-//W3C//DTD SVG 1.1//EN" "http://www.w3.org/Graphics/SVG/1.1/DTD/svg11.dtd" [
	<!ENTITY ns_flows "http://ns.adobe.com/Flows/1.0/">
]>
<svg version="1.1"
	 xmlns="http://www.w3.org/2000/svg" xmlns:xlink="http://www.w3.org/1999/xlink" xmlns:a="http://ns.adobe.com/AdobeSVGViewerExtensions/3.0/"
	 x="0px" y="0px" width="103px" height="45px" viewBox="-0.331 -0.105 103 45" enable-background="new -0.331 -0.105 103 45"
	 xml:space="preserve">
<defs>
</defs>
<path d="M0.295,13.214c0.825-0.894,1.528-1.311,1.47-2.871C1.707,8.782,1.818,5.902,4.353,4.836C5.072,4.534,3.433,0.673,4.357,0.45
	C5.282,0.229,6.36,2.189,6.36,2.189s2.19,0.001,2.96-0.208C10.089,1.77,10.123,0.045,10.747,0c0.367-0.025,1.097,1.491,2.787,3.25
	c1.689,1.759,6.278,3.159,13.993,1.521c7.716-1.639,31.47-2.37,35.276-1.7c5.115,0.905,10.449,1.615,16.352,9.815
	c5.904,8.198,5.375,11.839,14.997,17.268c2.776,1.567,7.559,0.563,7.733,3.06c0.175,2.492-5.669,1.807-8.228,1.046
	c-2.557-0.761-8.113-3.871-11.777-9.349c-2.1-3.143-4.214-4.248-4.214-4.248s-0.006,4.386,0.072,5.478
	c0.076,1.091,1.924,2.841,3.558,3.821c1.635,0.981,1.488,3.341,3.088,6.048c1.599,2.707,2.339,2.994,2.003,4.897
	s-0.873,3.195-1.984,2.961c-1.114-0.236-0.746-1.671-0.746-1.671s-0.279,0.489-0.522-0.747c-0.243-1.236-0.448-2.816-1.781-3.977
	c-1.334-1.156-8.355-5.205-10.267-5.699c-1.915-0.491-5.019-2.309-6.218-3.79c0,0-0.204-0.121-0.543-0.319
	c-0.044,0.073-0.086,0.146-0.143,0.21c-1.358,1.504-2.026,2.387-1.802,4.095c0.226,1.707,0.188,4.161-0.615,4.584
	c-0.808,0.423-3.702,3.027-4.734,3.936c-1.034,0.907-3.127,1.576-6.252,1.693c-3.124,0.114-2.3-1.51-2.3-1.51
	c0.307-0.854,0.999-0.696,0.999-0.696c0.18-0.378,0.05-0.734,1.153-0.655c1.102,0.079,2.907-0.986,4.099-1.854
	s3.264-2.58,1.363-5.105c-1.351-1.8-1.592-5.817-1.618-7.985c-3.532,0.72-9.377,1.921-13.679,2.012
	c-0.98,0.021-1.95,0.014-2.896-0.002c-0.106,0.59-0.325,1.428-0.689,2.498c-0.561,1.66-1.522,4.336-0.721,5.324
	c0.798,0.987,1.372,0.946,2.025,1.319c0.652,0.373,2.953,1.933,2.919,2.927c0.381,0.963,0.239,1.185-0.055,1.467
	c-0.215,0.643-1.08,0.964-1.561,0.787c-0.781,0.055-1.535-0.258-2.174-1.205c-0.642-0.945-4.167-3.569-4.681-4.212
	c-0.517-0.643-0.394-3.364-0.556-4.919c-0.125-1.202-1.069-3.033-0.999-4.346c-1.889-0.167-3.09-0.327-3.09-0.327
	s-2.028,3.797-3.069,5.332c-1.04,1.536-5.188,7.883-5.938,9.084c-0.752,1.2-3.211,3.359-6.238,3.363
	c-1.335,0.303-1.52-0.834-1.52-0.834s-0.613-0.583,0.08-1.103c0,0,0.216-0.64,1.25-0.766c1.034-0.125,2.9-1.091,3.739-1.777
	c0.839-0.686,1.987-4.37,2.288-6.791c0.3-2.424-2.149-8.308-2.393-9.542c-0.244-1.235-4.33-6.638-7.64-6.196
	c-3.31,0.442-5.476,0.854-6.319-0.025c-1.55-0.518-1.924-1.379-1.924-1.379S-0.529,14.107,0.295,13.214z"/>
</svg>
