<?xml version="1.0" encoding="utf-8"?>
<!-- Generator: Adobe Illustrator 14.0.0, SVG Export Plug-In . SVG Version: 6.00 Build 43363)  -->
<!DOCTYPE svg PUBLIC "-//W3C//DTD SVG 1.1//EN" "http://www.w3.org/Graphics/SVG/1.1/DTD/svg11.dtd">
<svg version="1.1" id="レイヤー_1" xmlns="http://www.w3.org/2000/svg" xmlns:xlink="http://www.w3.org/1999/xlink" x="0px"
	 y="0px" width="48px" height="48px" viewBox="0 0 48 48" enable-background="new 0 0 48 48" xml:space="preserve">
<g id="Expanded">
	<g>
		<g>
			<path d="M17.495,28.342l-0.489-0.706C16.639,27.103,8,14.539,8,9.495C8,4.26,12.26,0,17.495,0c5.235,0,9.495,4.26,9.495,9.495
				c0,5.043-8.639,17.607-9.007,18.141L17.495,28.342z M17.495,1.187c-4.581,0-8.308,3.727-8.308,8.308
				c0,4.027,6.459,13.978,8.308,16.743c1.849-2.765,8.308-12.716,8.308-16.743C25.802,4.914,22.076,1.187,17.495,1.187z"/>
		</g>
		<g>
			<path d="M17.495,13.649c-2.29,0-4.154-1.863-4.154-4.154s1.864-4.154,4.154-4.154s4.154,1.864,4.154,4.154
				S19.785,13.649,17.495,13.649z M17.495,6.528c-1.636,0-2.967,1.331-2.967,2.967c0,1.636,1.331,2.967,2.967,2.967
				c1.636,0,2.967-1.331,2.967-2.967C20.462,7.859,19.131,6.528,17.495,6.528z"/>
		</g>
	</g>
</g>
</svg>
